<svg xmlns="http://www.w3.org/2000/svg" width="630" height="880" viewBox="0 0 630 880" role="img"><title>Fictional TCG-M demo card; no real game affiliation</title><defs><linearGradient id="s2" x2="0" y2="1"><stop stop-color="#E5F6F0"/><stop offset="1" stop-color="#BDE7E5"/></linearGradient><linearGradient id="r2" x2="0" y2="1"><stop stop-color="white" stop-opacity=".85"/><stop offset="1" stop-color="white" stop-opacity="0"/></linearGradient></defs><rect width="630" height="880" rx="38" fill="#FFFFFF"/><g transform="translate(22 22) scale(.93)"><rect width="630" height="880" fill="url(#s2)"/><circle cx="372" cy="215" r="115" fill="white" opacity=".65"/><path d="M0 450 138 218 318 472 470 310 630 482V880H0Z" fill="#65AAA7" opacity=".35"/><path d="M0 609 164 357 343 580 475 398 630 548V880H0Z" fill="#65AAA7"/><path d="M0 712 190 516 346 720 466 560 630 690V880H0Z" fill="#326B71"/><path d="M254 880Q474 696 322 658T286 528Q383 610 383 645T360 715Q347 783 405 880Z" fill="url(#r2)"/><path d="M106 119h8m-4 -4v8" stroke="white" stroke-width="3"/><path d="M323 101h10m-5 -5v10" stroke="white" stroke-width="3"/><path d="M528 285h8m-4 -4v8" stroke="white" stroke-width="3"/><path d="M209 282h6m-3 -3v6" stroke="white" stroke-width="3"/><path d="M551 93h6m-3 -3v6" stroke="white" stroke-width="3"/></g><rect x="36" y="672" width="558" height="170" rx="20" fill="#FFFFFF" fill-opacity=".94"/><text x="60" y="718" fill="#0F4C5C" font-family="Arial,sans-serif" font-size="22" letter-spacing="4">TCG-M / SAMPLE</text><text x="60" y="775" fill="#0F4C5C" font-family="Arial,sans-serif" font-size="36" font-weight="700">PRISM WORLD 03</text><text x="60" y="815" fill="#526A73" font-family="Arial,sans-serif" font-size="20">FICTIONAL DESIGN ASSET</text></svg>