<svg xmlns="http://www.w3.org/2000/svg" width="630" height="880" viewBox="0 0 630 880" role="img"><title>Original abstract landscape 1; not an actual game card</title><defs><linearGradient id="s0" x2="0" y2="1"><stop stop-color="#DFF3FF"/><stop offset="1" stop-color="#BDCAFB"/></linearGradient><linearGradient id="r0" x2="0" y2="1"><stop stop-color="white" stop-opacity=".85"/><stop offset="1" stop-color="white" stop-opacity="0"/></linearGradient></defs><rect width="630" height="880" fill="url(#s0)"/><circle cx="410" cy="215" r="115" fill="white" opacity=".65"/><path d="M0 450 138 218 318 472 470 310 630 482V880H0Z" fill="#486F95" opacity=".35"/><path d="M0 609 164 357 343 580 475 398 630 548V880H0Z" fill="#486F95"/><path d="M0 712 190 516 346 720 466 560 630 690V880H0Z" fill="#0F4C5C"/><path d="M254 880Q474 696 322 658T286 528Q383 610 383 645T360 715Q347 783 405 880Z" fill="url(#r0)"/><path d="M106 119h8m-4 -4v8" stroke="white" stroke-width="3"/><path d="M323 101h10m-5 -5v10" stroke="white" stroke-width="3"/><path d="M528 285h8m-4 -4v8" stroke="white" stroke-width="3"/><path d="M209 282h6m-3 -3v6" stroke="white" stroke-width="3"/><path d="M551 93h6m-3 -3v6" stroke="white" stroke-width="3"/></svg>